<svg width="132" height="131" viewBox="0 0 132 131" fill="none" xmlns="http://www.w3.org/2000/svg">
<path d="M66 9.5326e-06C83.6292 1.10621e-05 100.203 6.81329 112.669 19.1844C125.135 31.5559 132 48.0043 132 65.5C132 82.9957 125.135 99.4441 112.669 111.816C100.203 124.187 83.6292 131 66 131C48.3708 131 31.7968 124.187 19.3308 111.816C6.86531 99.4441 1.94875e-05 82.9957 2.10287e-05 65.5C2.25699e-05 48.0043 6.86531 31.5559 19.3308 19.1843C31.7968 6.81329 48.3708 8.00308e-06 66 9.5326e-06ZM66 107.973C89.5981 107.973 108.797 88.9196 108.797 65.5C108.797 42.0804 89.5981 23.0274 66 23.0274C42.4019 23.0273 23.2031 42.0804 23.2031 65.5C23.2031 88.9196 42.4019 107.973 66 107.973Z" fill="#8AA4FF"/>
<path d="M19.3308 111.816C31.7968 124.187 48.3708 131 66 131L66 107.973C42.4019 107.973 23.2031 88.9196 23.2031 65.5C23.2031 42.0804 42.4019 23.0273 66 23.0273L66 0C48.3708 -1.51793e-06 31.7968 6.81328 19.3308 19.1843C6.86531 31.5559 1.49963e-05 48.0043 1.34433e-05 65.5C1.18904e-05 82.9957 6.8653 99.4441 19.3308 111.816Z" fill="#7D76C7"/>
</svg>
