<svg width="128" height="128" viewBox="0 0 128 128" fill="none" xmlns="http://www.w3.org/2000/svg">
<path d="M124.489 96.9806L98.5656 71.0567C94.6681 67.1592 94.6681 60.8408 98.5656 56.9433L124.489 31.0194C129.17 26.3387 129.17 18.7508 124.489 14.0701L113.93 3.51051C109.249 -1.17017 101.661 -1.17017 96.9806 3.51051L71.0567 29.4344C67.1592 33.3309 60.8408 33.3309 56.9433 29.4344L31.0194 3.51051C26.3387 -1.17017 18.7508 -1.17017 14.0701 3.51051L3.51051 14.0701C-1.17017 18.7508 -1.17017 26.3387 3.51051 31.0194L29.4344 56.9433C33.3319 60.8408 33.3319 67.1592 29.4344 71.0567L3.51051 96.9806C-1.17017 101.661 -1.17017 109.249 3.51051 113.93L14.0701 124.489C18.7508 129.17 26.3387 129.17 31.0194 124.489L56.9433 98.5656C60.8408 94.6681 67.1592 94.6681 71.0567 98.5656L96.9806 124.489C101.661 129.17 109.249 129.17 113.93 124.489L124.489 113.93C129.17 109.249 129.17 101.661 124.489 96.9806Z" fill="#FB6C7D"/>
<path d="M35.2516 8.04552L30.723 3.49474C26.087 -1.16492 18.5716 -1.16492 13.9357 3.49474L3.47697 14.0069C-1.15899 18.6666 -1.15899 26.2204 3.47697 30.8801L29.1532 56.6876C33.0134 60.5676 33.0134 66.8576 29.1532 70.7375L3.47697 96.545C-1.15899 101.205 -1.15899 108.759 3.47697 113.418L9.92359 119.899C9.92939 109.945 16.5888 103.777 16.5888 103.777L51.1365 69.0527C56.406 63.7563 56.406 55.169 51.1365 49.8716L30.9571 29.589C26.3859 24.9955 26.2834 17.5797 30.723 12.8598L35.2516 8.04552Z" fill="#A82C3B"/>
</svg>
